<?xml version="1.0" encoding="UTF-8" standalone="no"?>
<!-- Created with Inkscape (http://www.inkscape.org/) -->

<svg
   xmlns:dc="http://purl.org/dc/elements/1.1/"
   xmlns:cc="http://creativecommons.org/ns#"
   xmlns:rdf="http://www.w3.org/1999/02/22-rdf-syntax-ns#"
   xmlns:svg="http://www.w3.org/2000/svg"
   xmlns="http://www.w3.org/2000/svg"
   xmlns:sodipodi="http://sodipodi.sourceforge.net/DTD/sodipodi-0.dtd"
   xmlns:inkscape="http://www.inkscape.org/namespaces/inkscape"
   width="338.73883mm"
   height="167.52597mm"
   viewBox="0 0 338.73883 167.52598"
   version="1.1"
   id="svg2112"
   inkscape:version="0.92.4 (5da689c313, 2019-01-14)"
   sodipodi:docname="mapa rolo.svg">
  <defs
     id="defs2106" />
  <sodipodi:namedview
     id="base"
     pagecolor="#ffffff"
     bordercolor="#666666"
     borderopacity="1.0"
     inkscape:pageopacity="0.0"
     inkscape:pageshadow="2"
     inkscape:zoom="0.7"
     inkscape:cx="733.48023"
     inkscape:cy="314.05818"
     inkscape:document-units="mm"
     inkscape:current-layer="layer1"
     showgrid="false"
     inkscape:window-width="1920"
     inkscape:window-height="1017"
     inkscape:window-x="-8"
     inkscape:window-y="-8"
     inkscape:window-maximized="1" />
  <metadata
     id="metadata2109">
    <rdf:RDF>
      <cc:Work
         rdf:about="">
        <dc:format>image/svg+xml</dc:format>
        <dc:type
           rdf:resource="http://purl.org/dc/dcmitype/StillImage" />
        <dc:title></dc:title>
      </cc:Work>
    </rdf:RDF>
  </metadata>
  <g
     inkscape:label="Capa 1"
     inkscape:groupmode="layer"
     id="layer1"
     transform="translate(77.618691,-124.73531)">
    <path
       style="color:#000000;font-style:normal;font-variant:normal;font-weight:normal;font-stretch:normal;font-size:medium;line-height:normal;font-family:sans-serif;font-variant-ligatures:normal;font-variant-position:normal;font-variant-caps:normal;font-variant-numeric:normal;font-variant-alternates:normal;font-feature-settings:normal;text-indent:0;text-align:start;text-decoration:none;text-decoration-line:none;text-decoration-style:solid;text-decoration-color:#000000;letter-spacing:normal;word-spacing:normal;text-transform:none;writing-mode:lr-tb;direction:ltr;text-orientation:mixed;dominant-baseline:auto;baseline-shift:baseline;text-anchor:start;white-space:normal;shape-padding:0;clip-rule:nonzero;display:inline;overflow:visible;visibility:visible;opacity:1;isolation:auto;mix-blend-mode:normal;color-interpolation:sRGB;color-interpolation-filters:linearRGB;solid-color:#000000;solid-opacity:1;vector-effect:none;fill:#000000;fill-opacity:1;fill-rule:nonzero;stroke:none;stroke-width:11.33858299;stroke-linecap:round;stroke-linejoin:round;stroke-miterlimit:4;stroke-dasharray:none;stroke-dashoffset:0;stroke-opacity:1;paint-order:stroke markers fill;color-rendering:auto;image-rendering:auto;shape-rendering:auto;text-rendering:auto;enable-background:accumulate"
       d="M 43.867188,0 39.033203,0.24023438 22.083984,5.7109375 5.4902344,32.388672 l 1.9570312,69.279298 -7.42773435,53.67969 9.36132815,22.75976 34.4667966,4.53125 -0.193359,0.0234 263.976563,-16.23242 60.6582,-1.50586 15.78906,8.10547 -1.14453,26.86914 -0.1914,0.80468 4.6875,72.33594 7.16015,67.86914 -9.67773,88.44922 -17.45117,70.03906 -80.21094,-8.67382 -4.01562,-0.63477 -23.08399,17.87109 -7.46289,29.46094 -7.80273,58.46485 -0.45704,1.93359 3.35938,15.25976 10.98242,8.61329 30.31836,1.77929 33.45508,-4.125 25.20898,1.20899 3.43946,0.19922 73.125,3.86132 37.15429,-3.89648 23.39258,-28.29492 -1.93359,-5.74414 -21.51172,-7.17578 -20.06445,-0.72266 -9.00586,-3.07031 2.30273,-15.9961 0.24414,-3.24804 -1.54297,-35.23438 6.98438,-5.21289 20.09961,3.01953 2.20703,0.28906 125.54492,-12.9121 64.65039,2.46679 16.04102,17.08203 -4.54688,32.90039 -0.28125,0.79688 -1.75,23.90234 9.55274,16.28516 37.82421,9.66211 45.70899,-3.0332 37.02734,0.10351 1.35156,0.13281 230.57228,-5.24218 4.791,-2.84961 5.5371,-30.8711 -2.1914,-29.89648 3.5645,-16.2168 6.7031,-1.95703 15.9004,2.99024 2.3769,0.22851 28.1465,7.86914 6.3867,29.0625 1.4317,38.48828 18.0332,31.33789 4.289,0.54492 76.5059,1.75 39.5527,0.0957 31.211,-15.64258 1.166,-4.96094 9.7207,-212.86328 -10.1113,-63.08594 -60.7325,-18.95703 -87.3925,22.10156 -28.045,32.45899 3.5059,47.38086 1.1973,21.37305 -14.6973,4.93945 -42.6465,-11.41211 -8.8203,-177.25391 -0.023,-0.86328 1.8086,-41.29492 8.2675,-7.375 21.0606,3.48437 1.248,0.33204 15.3477,-2.79688 9.0195,-11.16211 0.8203,-30.48047 -16.5879,-27.15039 -30.8847,-3.26953 -7.3242,-3.06445 -3.7422,-9.01172 -0.3535,-32.19336 -6.0606,-32.066406 -14.6387,-8.060547 -20.85348,3.285156 -31.5957,2.664063 -6.09766,23.644531 4.65234,24.248043 0.75196,8.71094 -0.35352,1.22656 -249.95898,-6.43359 -53.65039,5.00781 -11.8711,-6.13476 1.94141,-24.861331 0.26562,-1.617188 L 640.48828,26.136719 625.77539,6.4335938 594.63867,8.375 350.29883,12.464844 346.05469,14.355469 335.76367,49.5 l 0.72266,39.042969 -6.48047,25.519531 -9.66406,4.11914 -20.08594,-2.8125 -2.10352,-0.20703 -180.36914,7.21094 -2.25781,-33.121097 5.20313,-10.681641 18.28515,-3.742187 5.24805,-3.013672 6.27539,-38.140625 L 128.89258,10.539062 60.433594,1.7382812 Z m 0.535156,11.287109 15.197265,1.65625 1.800782,0.07422 62.414059,7.65625 15.91602,16.431641 -4.50977,26.714843 -21.40039,5.75 -9.54492,18.248047 2.75391,40.726561 6.15625,5.43946 185.04883,-7.47657 23.23828,2.95899 16.60156,-7.44141 9.75195,-33.291015 -0.73047,-38.939453 6.50977,-25.992188 241.94922,-4.111328 1.60937,-0.339844 24.11719,-2.509765 8.17773,11.951172 0.125,51.52539 -1.05468,32.060551 20.86914,12.4082 55.71094,-4.98242 0.60546,-0.0664 251.2793,6.82813 4.28906,-1.44727 4.5625,-10.5918 -0.88672,-11.48046 -4.57031,-23.628911 2.31055,-13.78125 23.19531,0.02148 3.29102,-0.146484 17.23045,-3.085938 6.8125,3.564453 3.8106,25.025391 0.5371,34.496095 6.5195,14.61523 15.8262,6.87305 2.7011,-0.54688 21.1719,1.38086 12.4981,20.97852 -0.3321,23.32812 -4.5175,5.84571 -7.67,1.20312 -26.6562,-3.625 -15.961,13.77539 -2.7597,46.60938 8.9765,181.34375 2.9454,4.92969 50.9062,13.9082 23.8359,-9.61914 0.1993,-32.125 -0.1407,-0.35352 -3.3066,-38.99218 23.5547,-26.86329 80.8457,-20.30664 1.2402,-0.0879 51.0098,14.76368 7.8535,54.23437 -0.1758,1.46875 -10.0332,212.22852 -22.4179,10.35742 -36.8653,-0.16992 -77.459,-1.85938 -11.1543,-22.07226 -1.3281,-37.23438 -8.4883,-35.32227 -37.6933,-12.56445 -18.1817,-3.26953 -13.8554,4.67969 -7.5293,25.1582 2.1992,30 -3.166,22.04102 -226.00784,5.14257 -39.73243,-0.18164 -44.68359,2.99024 -30.68555,-7.08008 -5.63281,-9.72852 1.48828,-18.42187 4.79297,-40.35352 -21.95312,-23.92382 -72.46094,-3.22657 -1.04883,0.37696 -121.41602,12.17968 -24.58984,-3.12109 -15.14648,11.53711 0.50195,41.10156 -0.9082,24.13281 17.70898,8.42969 20.13672,0.73047 11.48047,2.82813 -14.81641,16.57812 -32.11914,3.08594 -75.25,-3.69727 -28.38476,-1.54297 -33.46875,4.13282 -25.19336,-1.10743 -5.38868,-4.02929 -1.58789,-8.36328 8.15625,-60.06641 6.25391,-25.43164 14.16406,-11.46484 86.91602,8.67382 3.25391,-1.61523 21.70312,-79.08984 9.26562,-85.97657 0.35352,-1.50586 -7.31641,-71.33984 -4.66796,-68.03125 0.0176,-35.47656 -24.01953,-13.67188 -62.69531,1.43946 -1.01758,0.0527 -263.519529,16.17969 -0.199219,0.0234 -26.523438,-2.53906 -4.576172,-13.16211 7.417969,-54.67773 -0.0078,-0.125 -2.169922,-66.208986 11.509765,-19.363281 12.208985,-3.816406 z m 376.798826,28.501953 -8.93164,1.244141 -19.45117,16.166016 -7.21289,56.013671 2.72461,4.59766 81.48047,4.67383 87.23047,-5.9668 30.45312,1.33008 10.64453,-23.304691 -3.98633,-28.242188 -11.16211,-22.271484 -4.50195,-1.888672 -134.63867,1.976563 -16.7207,-4.074219 z m 0.28516,11.353516 4.55078,0.208984 15.33203,3.765626 1.80078,0.332031 132.60156,-1.882813 7.53711,16.056641 3.50586,24.345703 -5.61718,14.44531 -20.10157,-2.50195 -1.43945,-0.45703 -91.45508,5.80078 -71.21289,-2.11133 5.84766,-46.646483 12.4082,-10.525391 z m 59.67773,116.681642 -5.48437,4.82031 7.24219,65.80078 v 0.0156 l -1.625,209.97851 2.99804,6.02344 61.55664,6.4375 66.61328,-2.74805 38.45313,-3.14257 11.71484,-27.68946 1.47657,-32.58398 7.54492,-23.51953 209.05468,-1.85157 23.87305,3.28321 14.66016,-12.73242 0.9082,-43.31055 -0.0293,-0.17578 -17.58398,-131.08789 -4.44336,-3.75 -176.13281,-8.00977 -0.0664,-0.008 -240.16992,-5.73633 z m 5.66992,11.60351 234.28711,5.46289 171.48047,7.50782 16.39453,126.21484 -0.0371,-0.17773 -0.125,36.97656 -6.88086,6.20117 -18.38867,-3.16016 -2.08789,-0.40624 -214.00195,2.16406 -3.43945,1.85937 -11.22071,31.66211 -1.47656,32.54688 -7.43359,19.82031 -29.20899,0.92969 -1.01172,-0.16211 -68.48242,2.71484 -52.21875,-4.01562 1.26172,-207.61524 -0.0137,-0.33203 z m -135.74218,353.7168 -4.01172,0.12695 -46.56446,4.88672 -5.30078,4.64258 6.82813,34.94727 28.39844,11.01367 62.77539,-2.03125 6.25976,-5.49219 -9.92773,-35.26172 -26.72266,-12.34375 z m 3.82226,11.37891 6.66406,0.38086 19.45118,8.54882 6.57031,22.1836 -56.29492,1.82226 -21.01563,-7.49218 -4.05273,-21.03907 41.52344,-4.23632 z"
       transform="matrix(0.26458333,0,0,0.26458333,-77.618691,124.73531)"
       id="path2095"
       inkscape:connector-curvature="0"
       sodipodi:nodetypes="ccccccccccccccccccccccccccccccccccccccccccccccccccccccccccccccccccccccccccccccccccccccccccccccccccccccccccccccccccccccccccccccccccccccccccccccccccccccccccccccccccccccccccccccccccccccccccccccccccccccccccccccccccccccccccccccccccccccccccccccccccccccccccccccccccccccccccccccccccccccccccccccccccccccccccccccccccccccccccccccccccccccccccccccccccccccccc" />
  </g>
</svg>
