<svg xmlns="http://www.w3.org/2000/svg" viewBox="0 0 375.94 279.84"><defs><style>.cls-1{fill:#ed553b;}</style></defs><title>Recurso 9</title><g id="Capa_2" data-name="Capa 2"><g id="Capa_1-2" data-name="Capa 1"><path class="cls-1" d="M157.42,85.93c.06,1.85.22,3.61.44,5.29,30.36-23.13,96.57,1.06,125.63-19.37C298,61.64,316.93,45.38,340.21,33.2c-1-.51-1.93-1-2.91-1.48-30.12-14.57-64.09-9.8-97-2.58-22.45,4.93-47.28,10.41-73,3.16C161.14,50.05,156.37,56.25,157.42,85.93Z"/><path class="cls-1" d="M128.94,176.89c-12.09-33.81-43.27-91.5-12.84-150.61a85,85,0,0,0,7.19-18.76C90.89-11.29,67.11,8.17,68.34,33S61.6,70,40.67,77.28c-30.86,10.78-49.74,39.86-36.25,72C14,172.07,33.12,181,69.71,186.9c23.73,3.8,40.87,15.88,57,32C130.83,203.26,133.13,188.6,128.94,176.89Z"/><path class="cls-1" d="M266.12,205.7c-2.69-41.65,32-41.78,50.44-48.67,21.1-7.9,48.52-16.72,57.11-51.14a67.27,67.27,0,0,0,1.15-29.37c-28.48,11.42-23.65,39.26-80.17,45.77-59,6.8-73.88-3.65-112.76,19.08-.51.3-1,.58-1.53.86,2.15,9.27,2.7,21.06.17,37.31-6.32,40.64-15,58.69-15.89,80.42,22,19.53,44.63,23.8,67.22,16.6S268.81,247.35,266.12,205.7Z"/></g></g></svg>