<svg xmlns="http://www.w3.org/2000/svg" viewBox="0 0 561.8 866.57"><defs><style>.cls-1{fill:#ed553b;}</style></defs><title>Recurso 6</title><g id="Capa_2" data-name="Capa 2"><g id="Capa_1-2" data-name="Capa 1"><path class="cls-1" d="M59,516.67c-9.71,65.84-12.76,118.41-8,161.92a36.72,36.72,0,0,0,4.78-4.71c22.62-27.07,55.78-81.69,119.88-87.12-6.89-19.49-9.62-40.7-11.33-61-1.4-16.53-1.95-33.15-1.88-49.73.05-13.73.5-27.56,2.52-41.15,1.55-10.41,3.9-21.81,10.32-30.43,15.77-21.14,44.68-1.22,59.84,10.09,11,8.24,25.69,18.7,40.33,17.72,20.9-1.41,20.72-30.46,20.58-45.54-.23-25.84-3.56-51.71-.79-77.51.77-7.27,3.68-16.4,11.63-18.53,6.15-1.66,12.18,1.89,16.32,6.17,6.31,6.55,10,15.4,13.06,23.8,4.93,13.34,8.77,27.07,13.17,40.59,8,24.55,17.18,48.67,27,72.52,11.09,27,23.54,53.42,35.38,80.1,10.55,23.74,20.92,47.74,28.43,72.64,9,29.89,17.16,72.77-15.42,91.56C406,688.94,382,689.29,360.94,687.8a342.54,342.54,0,0,1-82.16-16.28c-25.88-8.46-52.8-20.24-73.22-38.94-22.75,5.16-29.45,2.31-56.91,19.77-29.14,18.54-13.8,45.51-69,67.35-6.91,2.74-13.22,5-19,7a196.33,196.33,0,0,0,44.89,78.07c57.61,62.23,158.9,71.85,237.23,53.45,80.39-18.87,194.93-95.83,214.14-239.56,21.71-162.47-29.32-298-127.89-423.82C338.33,79.16,168.7-26.81,76.4,6.08S-8.08,145.43,15.21,214,80.52,370.67,59,516.67Z"/></g></g></svg>