<svg xmlns="http://www.w3.org/2000/svg" viewBox="0 0 529.91 712.85"><defs><style>.cls-1{fill:#ed553b;}</style></defs><title>Recurso 7</title><g id="Capa_2" data-name="Capa 2"><g id="Capa_1-2" data-name="Capa 1"><path class="cls-1" d="M352.21,159.44a45,45,0,0,0-5.63,16.63c-3.76,35.71-.69,101.21-53.74,141.28-23.91,18.06-28.13,36.85-28.19,52.65,21.18,9.82,27.89,35.49,13.74,53.1-27.92,34.74-35.6,54.51-38.89,87.42-4,40-1.4,66.42-31.51,85.07-23.9,14.8-81.16,2.07-97.05-59.61-14.21-55.16,7.9-104.89,33.5-129.15,20.09-19,46-34.4,78.73-39.25-.18-2.76-.32-5.51-.44-8.18-1.11-24.13,0-40.68,19.46-62.27,18.22-20.22,25.42-19.81,39.29-51.44s-13.9-45.48,19.76-94.38c11.59-16.83,21.28-28.39,29.35-38.1v0C316.11,43.76,264.38-16.29,200.7,4c-70.47,22.45-96.6,95.18-34.77,201.65C215.34,290.74,131.56,332.15,74.3,381,20.38,427-9.41,503.26,2.67,557.78,14.32,610.34,60.44,693.16,158.46,711c70,12.73,148.38-41.24,156.57-114.43,5.4-48.24-.55-81.76,14.46-122.37,17.05-46.16,46.66-63.63,101.27-71.34,44.54-6.28,105.86-49.17,98.56-107.53-7.59-60.64-59.16-77-89.49-86.85C417.87,201.31,378,191,352.21,159.44Z"/></g></g></svg>