<svg xmlns="http://www.w3.org/2000/svg" viewBox="0 0 673.48 568.13"><defs><style>.cls-1{fill:#ed553b;}</style></defs><title>Recurso 2</title><g id="Capa_2" data-name="Capa 2"><g id="Capa_1-2" data-name="Capa 1"><path class="cls-1" d="M651,342.64c-34.41-3-38.64,27.71-95.74,11.45-21.65-6.16-36.5-12.19-49-17a126.29,126.29,0,0,1-152,44.9c-19.21-7.66-60.82-32.39-72.76-98.17-9.74-53.62,16.95-94.15,51-89.18-4.56-19.08-5-34.39,7.51-56.55,13.35-23.73,20.46-24.91,27.05-58.82,2-10.39.59-18.3-1.73-25.85-64.74,51.31-68.92,83.7-174.59,134.79C101.84,231.21-.86,254.46,0,349c.78,85,83.24,106.64,166.31,101.63,159-9.59,207,57.91,308.06,103.53,118.48,53.47,250.37-53.11,178.87-211.34Z"/><path class="cls-1" d="M418.49,19.49c5.32,36.26,10.38,85.9-24.64,127.24-26.21,30.94-16.94,55.28-11.78,72.44,17.61,5.78,38,5.21,57.2-10.38,45.87-37.28,81.24-12.16,88.85,33.76a125.92,125.92,0,0,1-2.87,54.23c14.11,5.5,27.51,9,39,6.44,17.65-4,41.91-12,68.67-14.18-11.29-41.22-13.25-83.58-9.73-133.72C634.16-1,512.56-24.1,418.49,19.49Z"/></g></g></svg>