<svg xmlns="http://www.w3.org/2000/svg" viewBox="0 0 328.28 277.68"><defs><style>.cls-1{fill:#ed553b;}</style></defs><title>Recurso 11</title><g id="Capa_2" data-name="Capa 2"><g id="Capa_1-2" data-name="Capa 1"><path class="cls-1" d="M242.7,252.87a143.8,143.8,0,0,0,24.37-17.19c-3.7-10.35-8.41-19.19-15.29-25-10.86-9.16-26.18-20.05-40.95-34-3.57,20.11-9.19,34.63-30.16,50.22-21.84,16.24-28.82,14.43-48.63,42.73a52.56,52.56,0,0,0-3.58,5.87C172.07,282.44,208.36,272.12,242.7,252.87Z"/><path class="cls-1" d="M210.13,56.35c6.51,26.43,2.13,32.16,20.54,61.39s45.44,14,67,69.31c1,2.62,2,5.16,2.89,7.62a259.18,259.18,0,0,0,17-35.08c18-44.42,18.64-130.18-41.51-153.44-38-14.67-64.08-.74-82.64,17.21C200.92,31.28,206.4,41.23,210.13,56.35Z"/><path class="cls-1" d="M135,197.16c40.19-19.37,37.9-48.91,41-66.47a115.19,115.19,0,0,1-11-43.75,80.3,80.3,0,0,0-4.72-24.34c-24.38,23.19-54.51,31.61-100,22.46C13.87,75.72-4,124.54.74,153.91,6.89,192,25.94,235.92,76,259.7,87.32,235.39,104.79,211.71,135,197.16Z"/></g></g></svg>