<svg xmlns="http://www.w3.org/2000/svg" viewBox="0 0 704.87 704.06"><defs><style>.cls-1{fill:#ed553b;}</style></defs><title>Recurso 4</title><g id="Capa_2" data-name="Capa 2"><g id="Capa_1-2" data-name="Capa 1"><path class="cls-1" d="M630.64,321.76c-113.31,18.36-155.86-102.89-187.3-206.7S296-20.71,200.64,12.7c-79.89,28-155.11,104.74-188.43,236.77-57.09,226.25,95.12,408.12,268,445.27,61.74,13.26,116,11.44,162.88.35-20.55-14-42.74-32.43-56.16-59.08a79.51,79.51,0,0,1-10.16,8.87c-10.19,7.42-20.74,8.19-30.46-.41-16.24-14.39-26.13-37.66-36.44-56.1-17.19-30.75-42.72-60.33-78.66-68.74-35.43-8.29-66.51-27.21-75.88-64.42-7.95-31.62,1.22-67,25.6-89C199,349.83,220.25,336.48,236,317.57c24.06-28.84,30.19-66.63,26.81-102.81-2.25-24.07-8.4-50.41-6.19-74.83,2.14-23.57,26.1-15.47,41.62-9.93,35.84,12.79,68.16,36.24,88.8,68.88,22.23,35.16,30,77.08,35.59,117.55,5.13,37,8.58,74.37,13.71,111.47C441,461.07,443,494.06,437.74,527A218.6,218.6,0,0,1,422,579.93c4.46,15.62,5.44,23.89,22.54,45.67,18.84,24,40.79,12.81,64.4,46.21,77.34-37.08,127.44-98.21,152.21-140C705,457.75,744,303.4,630.64,321.76Z"/></g></g></svg>