<svg xmlns="http://www.w3.org/2000/svg" viewBox="0 0 482.98 395.95"><defs><style>.cls-1{fill:#ed553b;}</style></defs><title>Recurso 5</title><g id="Capa_2" data-name="Capa 2"><g id="Capa_1-2" data-name="Capa 1"><path class="cls-1" d="M201.51,335.19c1.53-27.17,7.4-31.37-1.63-64.71s-39.33-26.72-43.75-85.93,6.62-73.67-14.53-113.44c-.62-1.18-1.19-2.34-1.7-3.48C121,84.2,101.12,104.35,80,128.67,7.75,211.83-8.5,266.8,3.67,303.19c11.11,33.19,61,77,135.16,67.24,21.26-2.8,43.5-4.9,66-5.77C202.07,356.53,200.84,347.18,201.51,335.19Z"/><path class="cls-1" d="M478.71,347.86c15.19-50.06-13.6-63.11-33.15-140.24C429.91,145.85,422.88,98.24,399.21,64c-33.86-49-78.61-71-134.07-62-27.45,4.5-55.4,15.21-85.38,35A43.49,43.49,0,0,1,192,48.12c23.21,30.84-4.42,97.13,15,127.31s62.9,79.29,46.68,143.77c-5.09,20.2-2.53,34.72,2.81,45.84,36.77,2.13,72.93,8.62,105.48,21.83C422.16,411.29,468.21,382.47,478.71,347.86Z"/></g></g></svg>