<svg xmlns="http://www.w3.org/2000/svg" viewBox="0 0 740.36 673.25"><defs><style>.cls-1{fill:#ed553b;}</style></defs><title>Recurso 3</title><g id="Capa_2" data-name="Capa 2"><g id="Capa_1-2" data-name="Capa 1"><path class="cls-1" d="M452,487.64c-16.07-19.17-31.1-42.84-35.18-72.25a53.38,53.38,0,0,1-51.64-18.87c-45.18-55.2-73.59-73.77-124-89.8-61.33-19.49-103.58-24.15-122.83-77.48C103,186.92,141.87,101.46,243.72,97c91.09-4,161.67,47,191.2,95.15,28.21,46,45,103.63,30.58,171.72-.18.88-.38,1.76-.6,2.62,2.85,26.4-2,31.71,12.32,62.79,11.08,24.05,30.58,22.85,45.49,46.95,109.15-4.49,179.76-43.7,206.68-122.49,27.52-80.57,5.46-214.11-91.19-252.8s-164.78,25.83-316.2-56S63.8,5.74,22.41,72.71c-35.76,57.88-37.55,144.18,61,253,67.4,74.4,74.65,125.19,80,210s28.8,117.94,65.6,132c47.66,18.22,107.94-7.91,131.35-79.71C376.81,537.44,407.6,503.85,452,487.64Z"/></g></g></svg>