<svg xmlns="http://www.w3.org/2000/svg" viewBox="0 0 421.56 465.03"><defs><style>.cls-1{fill:#ed553b;}</style></defs><title>Recurso 10</title><g id="Capa_2" data-name="Capa 2"><g id="Capa_1-2" data-name="Capa 1"><path class="cls-1" d="M148.64,452.39c3.8-35.71.77-101.21,53.86-141.24,2.31-1.74,4.43-3.49,6.38-5.24-15-31.47-42.37-59.11-68.88-80.91-30.07-24.72-31.16-59.24-22.49-75.26,9.5-17.56,36.16-30.92,93.44-33s90.78,7.48,113.94,25.33S355.6,184.7,349,215c-4.61,21.18-20.21,40.78-38.11,68.68-22.37,34.84-17.09,50.42-41.51,62.44-8.55,4.22-19.78,4.43-30.36-.49-9.14,8.71-15.57,15.21-25.22,37.19-12.66,28.81,9.24,42.88-12.23,82.09,51.13,2,110.57-22,162.73-83.48C460.61,268,424.62,121.06,336.12,51.2,226.75-35.14,118.21,7.3,72.26,37.35S-39.39,144.8,30.63,166.16s60.29,102.72,49.1,171c-8.69,53,23.92,95.51,68.89,115.48C148.62,452.54,148.64,452.46,148.64,452.39Z"/></g></g></svg>