<svg xmlns="http://www.w3.org/2000/svg" viewBox="0 0 876.89 512.43"><defs><style>.cls-1{fill:#ed553b;}</style></defs><title>Recurso 8</title><g id="Capa_2" data-name="Capa 2"><g id="Capa_1-2" data-name="Capa 1"><path class="cls-1" d="M232.61,230.63c16.15-28.39,47.5-56.87,47.64-82.95.17-31.89-7.37-86.62,25.12-130.09C212.94,42.13,138.91,89.68,85.72,143c18.22.62,35.87-4.54,67.89,22.57C194.28,200,200.53,218,232.61,230.63Z"/><path class="cls-1" d="M163.66,487.18c.18-35.91-9.4-100.78,39.4-145.93,21.65-20,24.24-38.88,22.87-54.46l-.16,0c-38.26-5.09-66.15-71.26-101.31-78.56-20-4.16-50-7.07-78.41-19.35-66.5,92.75-69.62,243.08,48.41,304.27a178.66,178.66,0,0,0,61.24,19.3C160.48,503.83,163.61,495.39,163.66,487.18Z"/><path class="cls-1" d="M372.07,16.82c-16.12,21.93-23.32,22.24-34,55.1s18.36,43.86-10.27,95.88-45.77,58.11-49.78,103c-1,10.78-4.47,18.12-9.29,22.53,3.39,23.43,3.72,39.88-13.28,63-16.12,21.93-23.33,22.25-34,55.11s18.36,43.86-10.27,95.87c-.58,1.06-1.15,2.08-1.72,3.1,91.41-17.48,165.86-100.91,200.42-136.91,74.47-77.58,243.91-110.68,326.26-56.12s139.22-9.2,140.64-53.56c2.55-79.55-87-198-285.48-245.59C514.48-.22,444-3.72,380.37,3.5A94.23,94.23,0,0,1,372.07,16.82Z"/></g></g></svg>